<svg width="121" height="80" viewBox="0 0 121 80" fill="none" xmlns="http://www.w3.org/2000/svg">
<path fill-rule="evenodd" clip-rule="evenodd" d="M94.1119 80H25.4672V57.947H33.5324V44.9451C34.0379 45.0178 34.9789 44.9451 35.5093 44.9451C36.5718 44.9451 37.3747 44.6967 37.9705 44.281C37.9719 44.2858 38.167 44.5225 38.1604 44.5239C40.7433 54.6533 51.627 62.8676 62.2254 61.5073C66.3354 60.9798 68.828 60.1068 72.3197 57.8703C74.389 56.5447 76.4893 54.402 77.9573 52.351V57.9386H94.1119V80ZM45.3815 65.659H39.7344V75.9089H44.9417C45.1638 75.9089 45.6145 75.8625 46.2936 75.7694C46.8042 75.6993 47.186 75.5875 47.4391 75.4337C47.8475 75.1864 48.1693 74.8511 48.4049 74.4267C48.6401 74.0026 48.7577 73.5248 48.7577 72.9933C48.7577 72.3409 48.5923 71.7989 48.2617 71.3679C47.9307 70.9368 47.4146 70.6326 46.7133 70.4554C47.175 70.2877 47.5257 70.0591 47.7653 69.7702C48.1251 69.3366 48.3048 68.8172 48.3048 68.2112C48.3048 67.4887 48.0528 66.8827 47.549 66.3932C47.0453 65.9037 46.3228 65.659 45.3815 65.659ZM58.4137 65.659H50.3291V75.9089H58.5602V73.5876H53.3525V71.5669H58.0474V69.4765H53.3525V67.8474H58.4137V65.659ZM63.2149 65.659H60.1985V75.9089H63.2149V73.4079L64.7735 71.6937L66.8318 75.9089H70.547L66.8245 69.528L70.387 65.659H66.3749L63.2149 69.5324V65.659ZM76.6135 65.659H71.5859V75.9089H74.6158V71.7488H74.8821C75.1575 71.7488 75.4037 71.8281 75.6214 71.9866C75.781 72.1079 75.9633 72.3713 76.1675 72.7767L77.7798 75.9089H81.1885L79.7274 72.9389C79.6566 72.7895 79.5156 72.5773 79.3052 72.3022C79.0944 72.0268 78.9333 71.8471 78.8227 71.7631C78.6583 71.6374 78.3967 71.5114 78.0373 71.3854C78.4859 71.278 78.8391 71.1429 79.0966 70.9799C79.501 70.7235 79.8184 70.3889 80.0496 69.9765C80.2805 69.5638 80.3959 69.0732 80.3959 68.5048C80.3959 67.8521 80.245 67.2987 79.9433 66.8439C79.6412 66.3895 79.2438 66.0783 78.7511 65.9107C78.2583 65.743 77.546 65.659 76.6135 65.659ZM44.316 73.7067H42.7775V71.6301H44.3091C44.8376 71.6301 45.2073 71.7222 45.418 71.9063C45.6288 72.0904 45.7344 72.334 45.7344 72.6368C45.7344 72.963 45.6277 73.2231 45.4147 73.4163C45.2018 73.6099 44.8354 73.7067 44.316 73.7067ZM75.8877 69.8122H74.6158V67.7286H75.941C76.4915 67.7286 76.8666 67.817 77.0664 67.9942C77.2662 68.1714 77.3659 68.4256 77.3659 68.7565C77.3659 68.9801 77.3028 69.178 77.1764 69.3508C77.0496 69.5232 76.8867 69.6302 76.6869 69.6723C76.292 69.7654 76.0261 69.8122 75.8877 69.8122ZM44.0895 69.6792H42.7775V67.7356H44.1096C44.5666 67.7356 44.8877 67.8196 45.0718 67.9873C45.2559 68.1549 45.3483 68.3883 45.3483 68.6864C45.3483 69.0082 45.2559 69.254 45.0718 69.4242C44.8877 69.5941 44.5604 69.6792 44.0895 69.6792ZM94.1119 20.8498H77.9573V27.1449C74.0189 21.2951 67.5233 17.2486 59.9161 17.2741C56.3335 17.2862 53.088 18.081 49.8915 19.6871C47.1436 21.0679 44.507 23.1401 42.5466 25.5494C41.2481 22.7664 38.1089 20.8023 34.4463 20.8023C34.1377 20.8023 33.833 20.8162 33.5324 20.8436V20.8049H25.42L25.4672 0H94.1119V20.8498ZM78.7419 10.8935L81.6119 10.7047C81.6743 11.1942 81.8007 11.5671 81.9918 11.8235C82.3022 12.2385 82.7464 12.446 83.3236 12.446C83.7542 12.446 84.0859 12.3397 84.3189 12.1278C84.552 11.9156 84.6689 11.6698 84.6689 11.39C84.6689 11.1244 84.5578 10.8866 84.3357 10.6769C84.1136 10.4673 83.5986 10.2689 82.7906 10.0826C81.4676 9.77033 80.5245 9.35538 79.9605 8.83816C79.3921 8.32056 79.1083 7.66088 79.1083 6.85947C79.1083 6.33275 79.2537 5.83488 79.5444 5.3666C79.8352 4.89795 80.2724 4.52976 80.8561 4.26201C81.4402 3.9939 82.2401 3.85984 83.2571 3.85984C84.5045 3.85984 85.4557 4.10348 86.1106 4.59039C86.7652 5.07767 87.1549 5.85241 87.2791 6.91536L84.4354 7.08996C84.3602 6.62862 84.2013 6.29293 83.9595 6.08326C83.7177 5.8736 83.3835 5.76876 82.9572 5.76876C82.6065 5.76876 82.3424 5.84657 82.1649 6.0029C81.987 6.15888 81.8983 6.34882 81.8983 6.57273C81.8983 6.73564 81.9717 6.88248 82.1182 7.01325C82.2602 7.1484 82.5978 7.27406 83.1303 7.39058C84.449 7.68901 85.3936 7.99072 85.9637 8.29609C86.5343 8.60146 86.9496 8.98025 87.2093 9.43246C87.469 9.8843 87.5987 10.3902 87.5987 10.9494C87.5987 11.6069 87.4256 12.2129 87.0793 12.7674C86.733 13.3223 86.249 13.7427 85.6277 14.0294C85.006 14.3162 84.2225 14.4593 83.2768 14.4593C81.6166 14.4593 80.4668 14.124 79.8275 13.4527C79.1879 12.7813 78.8263 11.9284 78.7419 10.8935ZM32.7529 10.8935L35.6229 10.7047C35.685 11.1942 35.8117 11.5671 36.0024 11.8235C36.3132 12.2385 36.7574 12.446 37.3345 12.446C37.7648 12.446 38.0969 12.3397 38.3299 12.1278C38.5629 11.9156 38.6795 11.6698 38.6795 11.39C38.6795 11.1244 38.5684 10.8866 38.3467 10.6769C38.1246 10.4673 37.6096 10.2689 36.8016 10.0826C35.4786 9.77033 34.5351 9.35538 33.9715 8.83816C33.4031 8.32056 33.1189 7.66088 33.1189 6.85947C33.1189 6.33275 33.2643 5.83488 33.555 5.3666C33.8462 4.89795 34.2834 4.52976 34.8671 4.26201C35.4508 3.9939 36.2511 3.85984 37.2677 3.85984C38.5155 3.85984 39.4666 4.10348 40.1212 4.59039C40.7761 5.07767 41.1655 5.85241 41.2901 6.91536L38.4464 7.08996C38.3712 6.62862 38.2123 6.29293 37.9705 6.08326C37.7283 5.8736 37.3944 5.76876 36.9682 5.76876C36.6175 5.76876 36.3534 5.84657 36.1755 6.0029C35.998 6.15888 35.9092 6.34882 35.9092 6.57273C35.9092 6.73564 35.9827 6.88248 36.1291 7.01325C36.2712 7.1484 36.6084 7.27406 37.1413 7.39058C38.4599 7.68901 39.4042 7.99072 39.9747 8.29609C40.5453 8.60146 40.9602 8.98025 41.2199 9.43246C41.4797 9.8843 41.6097 10.3902 41.6097 10.9494C41.6097 11.6069 41.4366 12.2129 41.0903 12.7674C40.744 13.3223 40.26 13.7427 39.6383 14.0294C39.017 14.3162 38.2335 14.4593 37.2878 14.4593C35.6272 14.4593 34.4774 14.124 33.8381 13.4527C33.1989 12.7813 32.8373 11.9284 32.7529 10.8935ZM58.0448 4.03445H53.0172V14.2847H56.0471V10.1246H56.3134C56.5888 10.1246 56.835 10.2039 57.0527 10.3621C57.2123 10.4833 57.3943 10.7467 57.5984 11.1522L59.2111 14.2847H62.6199L61.1588 11.3147C61.0879 11.1653 60.9469 10.9531 60.7361 10.6777C60.5254 10.4023 60.3647 10.2229 60.254 10.1389C60.0896 10.0129 59.8277 9.88686 59.4686 9.76084C59.9172 9.65381 60.2704 9.51866 60.5279 9.35538C60.9323 9.09896 61.2497 8.76474 61.4809 8.35198C61.7118 7.93958 61.8272 7.44902 61.8272 6.88029C61.8272 6.22755 61.6764 5.67416 61.3743 5.21976C61.0726 4.76536 60.6751 4.45414 60.1824 4.28648C59.6896 4.11846 58.9773 4.03481 58.0448 4.03445ZM65.5468 4.03445H62.3934L66.0805 14.2847H69.35L72.975 4.03445H69.9133L67.7439 11.4111L65.5468 4.03445ZM77.1037 4.03445H74.0803V14.2847H77.1037V4.03445ZM51.2058 4.03445H43.1212V14.2847H51.3523V11.9634H46.1446V9.94274H50.8394V7.85228H46.1446V6.22316H51.2058V4.03445ZM57.319 8.1876H56.0471V6.10408H57.3723C57.9228 6.10408 58.2979 6.19285 58.4977 6.37C58.6976 6.54716 58.7973 6.80103 58.7973 7.13196C58.7973 7.35588 58.7341 7.55385 58.6073 7.72626C58.4809 7.89867 58.3177 8.00606 58.1182 8.04807C57.7234 8.14121 57.4571 8.1876 57.319 8.1876Z" fill="#111212" fill-opacity="0.8"/>
<path fill-rule="evenodd" clip-rule="evenodd" d="M71.7532 37.6203C70.4119 37.5359 70.4068 37.0187 71.2053 36.2414L74.2535 33.1369C74.9727 32.4203 74.9727 31.2558 74.2535 30.5391C73.5347 29.8221 72.3665 29.8221 71.6477 30.5391L67.5201 34.6535L65.3829 36.7644C63.5017 39.0343 60.4323 36.3528 62.4512 34.1104L68.9205 27.7141C69.6397 26.997 69.6397 25.8329 68.9205 25.1159C68.2013 24.3988 67.0335 24.3988 66.3143 25.1159L63.0981 28.5071C62.2663 28.8972 61.8364 28.6758 61.7725 27.8978L61.7323 22.6868C61.7323 21.6728 60.9064 20.8499 59.8891 20.8499C58.8722 20.8499 58.0463 21.6728 58.0463 22.6868L58.0062 27.9774C58.0299 28.7072 57.6803 28.9958 56.8106 28.6707L53.5626 25.2532C52.8434 24.5366 51.6756 24.5366 50.9564 25.2532C50.2372 25.9703 50.2372 27.1344 50.9564 27.8514L57.3209 34.2221C59.4289 35.9408 56.834 38.9754 54.5759 37.1144L48.0952 30.3974C47.376 29.6803 46.2082 29.6803 45.489 30.3974C44.7697 31.114 44.7697 32.2785 45.489 32.9952L48.6712 36.2717C49.3758 37.2181 49.1647 37.7185 47.8092 37.6608L43.2031 37.6364C42.1862 37.6364 41.3603 38.4593 41.3603 39.4733C41.3603 40.4873 42.1862 41.3103 43.2031 41.3103L48.3158 41.3892C49.0869 41.3545 49.3663 41.8998 48.6274 42.7451L45.5244 45.8028C44.8052 46.5198 44.8052 47.6839 45.5244 48.401C46.2436 49.1176 47.4114 49.1176 48.1306 48.401L54.7238 41.7807C56.7945 40.3576 58.7908 43.0351 57.3666 44.6912L51.0528 51.0689C50.3336 51.786 50.3336 52.9501 51.0528 53.6671C51.772 54.3841 52.9398 54.3841 53.659 53.6671L56.6554 50.609C57.505 49.9245 57.9872 50.0962 58.0361 51.2764L58.0463 55.9384C58.0463 56.952 58.8722 57.7753 59.8891 57.7753C60.9064 57.7753 61.7323 56.952 61.7323 55.9384L61.7732 51.3239C61.9076 50.3559 62.3832 50.2087 63.1514 50.7639L66.2065 53.7091C66.9258 54.4262 68.0936 54.4262 68.8128 53.7091C69.532 52.9921 69.532 51.828 68.8128 51.1109L62.0943 44.4794C60.8787 42.6965 63.1543 40.3836 65.122 41.9502L71.6122 48.3816C72.3315 49.0986 73.4992 49.0986 74.2185 48.3816C74.9377 47.6646 74.9377 46.5004 74.2185 45.7834L70.9723 42.5102C70.1234 41.5072 70.6373 41.2135 71.8409 41.2781L76.5591 41.3103C77.576 41.3103 78.4019 40.4873 78.4019 39.4733C78.4019 38.4593 77.576 37.6364 76.5591 37.6364L71.7532 37.6203ZM19.1801 33.4116H11.0904V31.0286C11.0904 29.9163 10.9867 29.208 10.78 28.9034C10.5732 28.5991 10.228 28.4468 9.7455 28.4468C9.22133 28.4468 8.82464 28.6521 8.5558 29.063C8.28659 29.4736 8.15217 30.0964 8.15217 30.931C8.15217 32.0042 8.3034 32.8122 8.60584 33.3554C8.89477 33.8989 9.71518 34.5542 11.0674 35.3213C14.9448 37.5304 17.387 39.3433 18.3941 40.7598C19.4011 42.1763 19.9045 44.4604 19.9045 47.6112C19.9045 49.9019 19.625 51.5902 19.0665 52.6758C18.508 53.7613 17.4287 54.6716 15.8284 55.4065C14.2285 56.1411 12.3663 56.5086 10.2419 56.5086C7.91073 56.5086 5.92108 56.0849 4.2726 55.2374C2.62449 54.3903 1.54511 53.3113 1.03482 52.0004C0.524167 50.6898 0.269207 48.8294 0.269207 46.4197V44.3146H8.35928V48.2271C8.35928 49.4318 8.47288 50.2065 8.70045 50.5506C8.92801 50.895 9.33164 51.0671 9.91096 51.0671C10.4903 51.0671 10.9213 50.8487 11.204 50.4118C11.4868 49.9746 11.6281 49.3258 11.6281 48.4653C11.6281 46.572 11.3593 45.3341 10.8212 44.7515C10.2697 44.1689 8.91085 43.1958 6.74514 41.8323C4.5798 40.4552 3.145 39.4558 2.44149 38.8334C1.73797 38.2113 1.15536 37.3507 0.693289 36.2516C0.231218 35.1529 0 33.7495 0 32.0415C0 29.5788 0.32765 27.778 0.982951 26.6394C1.63825 25.5009 2.69681 24.6103 4.159 23.9686C5.62119 23.3264 7.38656 23.0053 9.45583 23.0053C11.718 23.0053 13.6455 23.356 15.2388 24.0577C16.8318 24.7594 17.8871 25.6433 18.4043 26.7092C18.9215 27.7747 19.1801 29.5854 19.1801 32.1408V33.4116ZM31.3463 55.8332H22.6356V23.6804H31.4084C33.7809 23.6804 35.605 23.859 36.8813 24.2166C38.1572 24.5742 39.1157 25.0903 39.7571 25.7657C40.3985 26.4411 40.8332 27.2586 41.0608 28.2185C41.2883 29.1781 41.4019 30.6644 41.4019 32.677V35.4772C41.4019 37.5293 41.1813 39.0255 40.74 39.9653C40.2984 40.9056 39.4883 41.627 38.3088 42.1299C37.1293 42.6333 35.5879 42.885 33.6844 42.885H31.3463V55.8332ZM88.7125 55.7638H80.0018V23.611H86.1676C90.2781 23.611 93.0611 23.7629 94.5163 24.0675C95.9716 24.3722 97.1576 25.1499 98.0752 26.4013C98.9924 27.6523 99.4508 29.6482 99.4508 32.3888C99.4508 34.8913 99.1268 36.5727 98.4784 37.4333C97.8301 38.2938 96.5542 38.81 94.6507 38.9824C96.3748 39.3926 97.5335 39.9423 98.1267 40.6305C98.7199 41.319 99.0888 41.9513 99.2338 42.5274C99.3785 43.103 99.4508 44.6887 99.4508 47.2836V55.7638H91.3611V45.0792C91.3611 43.358 91.2194 42.2921 90.9367 41.8819C90.6539 41.4714 89.9124 41.2661 88.7125 41.2661V55.7638ZM115.197 55.7638H106.486V30.0452H101.334V23.611H120.369V30.0452H115.197V55.7638ZM31.3463 29.1817V37.3639C31.5947 37.377 31.8084 37.3836 31.9877 37.3836C32.7877 37.3836 33.3429 37.1951 33.6534 36.8178C33.9639 36.4405 34.1191 35.6558 34.1191 34.4643V31.823C34.1191 30.7239 33.9397 30.0091 33.581 29.6781C33.2223 29.3472 32.4776 29.1817 31.3463 29.1817ZM88.7125 29.112V36.2615C89.6918 36.2615 90.3781 36.1325 90.7712 35.8743C91.1642 35.616 91.3611 34.7785 91.3611 33.3619V31.5944C91.3611 30.5749 91.1712 29.9064 90.792 29.5887C90.4125 29.2709 89.7196 29.112 88.7125 29.112Z" fill="#111212" fill-opacity="0.8"/>
</svg>
