<svg width="503" height="503" viewBox="0 0 503 503" fill="none" xmlns="http://www.w3.org/2000/svg">
<path opacity="0.1" fill-rule="evenodd" clip-rule="evenodd" d="M240.266 40.534V9.50374C240.266 5.3194 244.13 1.92041 248.89 1.92041L255.218 1.92041C259.978 1.92041 263.842 5.3194 263.842 9.50374V41.4053L279.312 27.7992C284.471 23.2638 292.85 23.2638 298.009 27.7992L298.352 28.1022C303.511 32.6401 303.511 40.0063 298.352 44.5441L265.837 73.1401C265.216 73.6881 264.547 74.1679 263.842 74.582V102.665L306.668 65.0012C311.827 60.4659 320.206 60.4659 325.365 65.0012L325.708 65.3043C330.867 69.8421 330.867 77.2083 325.708 81.7462L266.963 133.408C266.019 134.239 264.966 134.918 263.842 135.446V162.539L279.312 148.933C284.471 144.398 292.85 144.398 298.009 148.933L298.352 149.236C303.511 153.774 303.511 161.14 298.352 165.678L265.837 194.274C265.216 194.822 264.547 195.302 263.842 195.716V234.241L301.617 215.062C301.645 214.17 301.792 213.271 302.064 212.372L313.966 173.309C315.855 167.112 323.11 163.428 330.16 165.09L330.627 165.198C337.675 166.86 341.865 173.241 339.976 179.441L334.155 198.539L361.019 184.9C360.918 183.648 361.049 182.36 361.438 181.08L382.941 110.511C384.83 104.312 392.085 100.627 399.133 102.289L399.602 102.4C406.65 104.059 410.84 110.441 408.951 116.64L393.117 168.602L420.905 154.494C420.933 153.605 421.077 152.703 421.352 151.807L433.254 112.744C435.143 106.544 442.398 102.862 449.446 104.521L449.913 104.633C456.963 106.294 461.15 112.673 459.261 118.872L453.443 137.973L485.819 121.534C489.943 119.441 495.221 120.686 497.602 124.309L500.764 129.13C503.145 132.754 501.731 137.398 497.607 139.491L466.835 155.115L486.024 159.638C493.072 161.299 497.261 167.681 495.372 173.877L495.249 174.289C493.36 180.489 486.105 184.173 479.057 182.511L434.638 172.044C434.383 171.984 434.133 171.918 433.883 171.845L406.509 185.746L463.067 199.074C470.115 200.734 474.304 207.115 472.415 213.314L472.292 213.726C470.403 219.923 463.148 223.607 456.1 221.948L375.855 203.037C375.122 202.865 374.423 202.643 373.759 202.375L347.547 215.683L366.739 220.206C373.787 221.865 377.976 228.246 376.087 234.446L375.961 234.857C374.072 241.054 366.817 244.739 359.769 243.08L315.352 232.612C315.097 232.552 314.845 232.486 314.597 232.413L277.491 251.254L313.524 269.549C314.032 269.367 314.559 269.211 315.102 269.082L359.519 258.617C366.567 256.956 373.822 260.64 375.711 266.837L375.837 267.251C377.723 273.448 373.537 279.83 366.489 281.491L346.377 286.228L372.782 299.638C373.658 299.223 374.602 298.893 375.602 298.658L455.847 279.749C462.895 278.087 470.15 281.771 472.039 287.971L472.165 288.383C474.054 294.58 469.865 300.961 462.817 302.622L405.337 316.165L432.812 330.115C433.319 329.933 433.845 329.779 434.388 329.65L478.804 319.183C485.852 317.524 493.107 321.206 494.996 327.405L495.122 327.817C497.011 334.016 492.822 340.395 485.774 342.057L465.663 346.797L495.456 361.923C499.58 364.016 500.994 368.66 498.612 372.284L495.451 377.102C493.069 380.729 487.792 381.973 483.668 379.88L453.438 364.529L459.011 382.822C460.9 389.021 456.711 395.403 449.663 397.062L449.193 397.173C442.145 398.835 434.89 395.15 433.001 388.951L421.1 349.89C420.9 349.229 420.766 348.567 420.701 347.908L393.112 333.9L408.698 385.057C410.587 391.254 406.398 397.635 399.35 399.297L398.883 399.405C391.835 401.067 384.577 397.383 382.691 391.186L361.188 320.615C360.867 319.562 360.721 318.501 360.736 317.461L334.153 303.963L339.726 322.256C341.612 328.453 337.425 334.835 330.377 336.496L329.908 336.607C322.86 338.266 315.605 334.582 313.716 328.385L301.814 289.322C301.612 288.663 301.481 287.999 301.413 287.34L263.842 268.264V305.519C264.693 305.981 265.499 306.537 266.236 307.188L298.751 335.782C303.913 340.319 303.913 347.688 298.751 352.226L298.41 352.526C293.249 357.064 284.872 357.064 279.711 352.526L263.842 338.572V365.835C265.115 366.385 266.307 367.122 267.365 368.054L326.107 419.713C331.266 424.251 331.266 431.62 326.107 436.158L325.764 436.458C320.605 440.996 312.226 440.996 307.067 436.458L263.842 398.446V426.653C264.693 427.115 265.499 427.673 266.236 428.322L298.751 456.915C303.913 461.453 303.913 468.822 298.751 473.36L298.41 473.66C293.249 478.198 284.872 478.198 279.711 473.66L263.842 459.706V494.337C263.842 498.521 259.978 501.92 255.218 501.92H248.89C244.13 501.92 240.266 498.521 240.266 494.337V461.279L226.188 473.66C221.026 478.198 212.65 478.198 207.491 473.66L207.148 473.36C201.989 468.822 201.989 461.453 207.148 456.915L239.663 428.322C239.86 428.148 240.062 427.981 240.266 427.822V400.019L198.832 436.458C193.673 440.996 185.294 440.996 180.135 436.458L179.792 436.158C174.633 431.62 174.633 424.251 179.792 419.713L238.534 368.054C239.079 367.574 239.658 367.148 240.266 366.769V340.145L226.188 352.526C221.026 357.064 212.65 357.064 207.491 352.526L207.148 352.226C201.989 347.688 201.989 340.319 207.148 335.782L239.663 307.188C239.86 307.014 240.062 306.847 240.266 306.688V270.153L203.524 288.809C203.481 288.986 203.43 289.163 203.377 289.337L191.476 328.4C189.587 334.597 182.332 338.282 175.284 336.622L174.814 336.511C167.766 334.85 163.577 328.468 165.466 322.271L170.562 305.547L144.383 318.837C144.312 319.433 144.186 320.034 144.004 320.63L122.501 391.201C120.612 397.398 113.357 401.082 106.309 399.42L105.842 399.312C98.7941 397.65 94.6047 391.269 96.4936 385.072L111.602 335.484L84.2361 349.377C84.1931 349.552 84.1452 349.729 84.0921 349.905L72.1906 388.966C70.3017 395.165 63.0467 398.85 55.9962 397.188L55.529 397.077C48.481 395.418 44.2916 389.037 46.1805 382.837L51.2765 366.112L20.1729 381.905C16.0492 383.999 10.7714 382.754 8.3901 379.13L5.22848 374.309C2.84717 370.686 4.26131 366.042 8.38505 363.948L41.3093 347.231L19.4179 342.072C12.3699 340.41 8.1805 334.032 10.0694 327.832L10.1957 327.42C12.082 321.221 19.3396 317.539 26.3876 319.198L70.8042 329.665C71.8749 329.918 72.88 330.279 73.8068 330.731L101.635 316.602L42.3749 302.638C35.327 300.976 31.1376 294.595 33.0265 288.398L33.1527 287.986C35.0391 281.787 42.2967 278.102 49.3446 279.764L129.59 298.673C131.092 299.026 132.466 299.597 133.678 300.332L160.597 286.665L138.703 281.506C131.655 279.845 127.466 273.463 129.355 267.266L129.481 266.852C131.37 260.655 138.625 256.971 145.673 258.633L190.09 269.1C191.16 269.35 192.165 269.711 193.092 270.165L230.34 251.254L192.11 231.842C191.443 232.112 190.739 232.337 190.004 232.509L145.587 242.976C138.539 244.638 131.284 240.953 129.395 234.756L129.269 234.342C127.38 228.145 131.569 221.764 138.617 220.102L159.362 215.216L132.794 201.723C131.787 202.246 130.686 202.658 129.501 202.936L49.2588 221.845C42.2083 223.506 34.9532 219.822 33.0643 213.622L32.9406 213.211C31.0517 207.014 35.2411 200.633 42.2891 198.971L100.4 185.276L72.8244 171.276C72.1552 171.547 71.4532 171.769 70.7184 171.943L26.2992 182.41C19.2512 184.069 11.9962 180.388 10.1073 174.188L9.98353 173.776C8.09464 167.577 12.284 161.198 19.332 159.537L40.077 154.648L6.23353 137.463C2.10979 135.37 0.695651 130.728 3.07696 127.102L6.23858 122.284C8.61989 118.66 13.8977 117.415 18.0214 119.509L51.4962 136.506L46.0946 118.771C44.2058 112.572 48.3951 106.191 55.4431 104.532L55.9103 104.42C62.9583 102.759 70.2133 106.443 72.1022 112.643L84.0037 151.703C84.1553 152.196 84.2664 152.691 84.3421 153.183L111.822 167.135L96.4053 116.537C94.5164 110.34 98.7058 103.958 105.754 102.297L106.223 102.188C113.271 100.526 120.526 104.211 122.415 110.408L143.918 180.978C144.191 181.872 144.335 182.771 144.365 183.658L170.784 197.072L165.38 179.337C163.491 173.14 167.68 166.759 174.728 165.097L175.198 164.986C182.246 163.327 189.501 167.011 191.39 173.208L203.292 212.271C203.441 212.764 203.552 213.256 203.627 213.749L240.266 232.352V195.072C239.92 194.824 239.585 194.559 239.264 194.274L206.746 165.678C201.587 161.14 201.587 153.774 206.746 149.236L207.09 148.933C212.249 144.398 220.627 144.398 225.787 148.933L240.266 161.668V134.931C239.511 134.499 238.797 133.991 238.135 133.408L179.393 81.7462C174.231 77.2083 174.231 69.8421 179.393 65.3043L179.734 65.0012C184.895 60.4659 193.271 60.4659 198.43 65.0012L240.266 101.794V73.9381C239.92 73.6906 239.585 73.4229 239.264 73.1401L206.746 44.5441C201.587 40.0063 201.587 32.6401 206.746 28.1022L207.09 27.7992C212.249 23.2638 220.627 23.2638 225.787 27.7992L240.266 40.534V40.534Z" stroke="url(#paint0_linear)" stroke-width="2" stroke-miterlimit="1.5" stroke-linecap="round" stroke-linejoin="round"/>
<defs>
<linearGradient id="paint0_linear" x1="501.92" y1="57.4204" x2="1.9204" y2="501.92" gradientUnits="userSpaceOnUse">
<stop stop-color="#1D164C"/>
<stop offset="1" stop-color="#04619F"/>
</linearGradient>
</defs>
</svg>
